<?xml version="1.0" standalone="no"?>
<!DOCTYPE svg PUBLIC "-//W3C//DTD SVG 20010904//EN"
 "http://www.w3.org/TR/2001/REC-SVG-20010904/DTD/svg10.dtd">
<svg version="1.0" xmlns="http://www.w3.org/2000/svg"
 width="226.000000pt" height="199.000000pt" viewBox="0 0 226.000000 199.000000"
 preserveAspectRatio="xMidYMid meet">

<g transform="translate(0.000000,199.000000) scale(0.100000,-0.100000)"
fill="#000000" stroke="none">
<path d="M955 1825 c-550 -86 -928 -512 -867 -974 52 -386 376 -693 827 -782
41 -8 132 -14 220 -14 163 0 239 11 379 56 232 76 431 224 550 412 268 421 91
950 -399 1192 -219 108 -473 148 -710 110z m413 -59 c251 -55 458 -175 596
-347 110 -139 163 -274 173 -444 8 -148 -31 -292 -115 -425 -207 -326 -650
-505 -1073 -434 -397 67 -708 321 -795 649 -24 93 -25 265 -1 355 91 342 406
594 822 660 84 13 306 5 393 -14z"/>
<path d="M1065 1130 c-11 -4 -31 -20 -45 -35 -21 -22 -25 -37 -25 -86 0 -52 3
-62 32 -90 68 -69 182 -42 211 49 35 108 -69 206 -173 162z m118 -51 c11 -14
17 -38 17 -69 0 -59 -22 -88 -71 -96 -29 -5 -41 -1 -65 19 -25 22 -29 32 -29
77 0 45 4 55 29 77 24 20 36 24 65 19 20 -3 44 -15 54 -27z"/>
<path d="M1300 1125 c0 -11 12 -15 45 -15 l45 0 0 -115 c0 -108 1 -115 20
-115 19 0 20 7 20 115 l0 115 40 0 c29 0 40 4 40 15 0 12 -18 15 -105 15 -87
0 -105 -3 -105 -15z"/>
<path d="M660 1068 c0 -2 15 -43 33 -93 46 -124 61 -125 105 -8 18 48 32 91
32 96 0 4 -9 7 -19 7 -16 0 -24 -13 -37 -60 -9 -33 -20 -60 -24 -60 -5 0 -17
26 -27 58 -15 43 -25 58 -41 60 -12 2 -22 2 -22 0z"/>
</g>
</svg>
